<svg width="46" height="44" viewBox="0 0 46 44" fill="none" xmlns="http://www.w3.org/2000/svg">
<path d="M36.2651 42.5957V35.5909H38.0361V42.5957H36.2651ZM33.6482 39.9788V38.2078H40.653V39.9788H33.6482Z" fill="#060A11" style="fill:#060A11;fill:color(display-p3 0.0235 0.0392 0.0667);fill-opacity:1;"/>
<path d="M26.6706 38.7517V43.1445H24.5632V33.0133H26.6112V36.8867H26.7003C26.8718 36.4382 27.1488 36.087 27.5314 35.8331C27.9139 35.5758 28.3938 35.4472 28.9709 35.4472C29.4986 35.4472 29.9586 35.5626 30.3511 35.7935C30.7468 36.021 31.0535 36.3492 31.2712 36.7779C31.4922 37.2033 31.601 37.7129 31.5977 38.3065V43.1445H29.4903V38.6824C29.4936 38.2141 29.3749 37.8497 29.1341 37.5892C28.8967 37.3287 28.5636 37.1984 28.1349 37.1984C27.848 37.1984 27.594 37.2594 27.3731 37.3814C27.1554 37.5034 26.9839 37.6815 26.8586 37.9157C26.7366 38.1465 26.6739 38.4252 26.6706 38.7517Z" fill="#060A11" style="fill:#060A11;fill:color(display-p3 0.0235 0.0392 0.0667);fill-opacity:1;"/>
<path d="M23.0636 37.7133L21.1343 37.832C21.1014 37.6671 21.0305 37.5187 20.9216 37.3868C20.8128 37.2516 20.6693 37.1444 20.4912 37.0653C20.3165 36.9828 20.107 36.9416 19.863 36.9416C19.5365 36.9416 19.2611 37.0108 19.0369 37.1493C18.8126 37.2846 18.7005 37.4659 18.7005 37.6935C18.7005 37.8749 18.773 38.0282 18.9181 38.1536C19.0633 38.2789 19.3122 38.3795 19.6651 38.4553L21.0404 38.7323C21.7791 38.884 22.3298 39.1281 22.6926 39.4645C23.0554 39.8009 23.2368 40.2428 23.2368 40.7902C23.2368 41.2882 23.09 41.7252 22.7965 42.1012C22.5063 42.4771 22.1072 42.7706 21.5993 42.9817C21.0948 43.1895 20.5127 43.2934 19.8531 43.2934C18.8472 43.2934 18.0458 43.0839 17.4489 42.6651C16.8553 42.243 16.5074 41.6691 16.4051 40.9436L18.4779 40.8348C18.5405 41.1415 18.6922 41.3756 18.933 41.5372C19.1737 41.6955 19.4821 41.7747 19.8581 41.7747C20.2274 41.7747 20.5242 41.7038 20.7485 41.562C20.976 41.4168 21.0915 41.2305 21.0948 41.003C21.0915 40.8117 21.0107 40.655 20.8524 40.533C20.6941 40.4077 20.45 40.312 20.1202 40.2461L18.8044 39.9839C18.0623 39.8355 17.5099 39.5783 17.1472 39.2122C16.7877 38.8461 16.608 38.3795 16.608 37.8122C16.608 37.3241 16.7399 36.9037 17.0037 36.5508C17.2708 36.1979 17.6452 35.9258 18.1266 35.7345C18.6114 35.5433 19.1787 35.4476 19.8284 35.4476C20.7881 35.4476 21.5433 35.6504 22.094 36.0561C22.6481 36.4617 22.9713 37.0141 23.0636 37.7133Z" fill="#060A11" style="fill:#060A11;fill:color(display-p3 0.0235 0.0392 0.0667);fill-opacity:1;"/>
<path d="M10.8272 43.2884C10.3425 43.2884 9.91043 43.2043 9.53117 43.0361C9.15191 42.8646 8.8518 42.6123 8.63084 42.2792C8.41318 41.9429 8.30435 41.524 8.30435 41.0227C8.30435 40.6006 8.38185 40.2461 8.53685 39.9592C8.69185 39.6723 8.90292 39.4414 9.17005 39.2666C9.43718 39.0918 9.74059 38.9599 10.0803 38.8709C10.4233 38.7818 10.7827 38.7192 11.1587 38.6829C11.6006 38.6367 11.9568 38.5938 12.2272 38.5543C12.4976 38.5114 12.6939 38.4487 12.8159 38.3663C12.9379 38.2838 12.9989 38.1618 12.9989 38.0002V37.9705C12.9989 37.6572 12.9 37.4148 12.7021 37.2433C12.5075 37.0718 12.2305 36.9861 11.871 36.9861C11.4918 36.9861 11.19 37.0702 10.9658 37.2384C10.7415 37.4033 10.5931 37.6111 10.5205 37.8617L8.57148 37.7034C8.67041 37.2417 8.86499 36.8426 9.15521 36.5063C9.44542 36.1666 9.81974 35.906 10.2781 35.7247C10.7399 35.54 11.2741 35.4476 11.8809 35.4476C12.3031 35.4476 12.7071 35.4971 13.0929 35.596C13.4821 35.695 13.8267 35.8483 14.1268 36.0561C14.4302 36.2639 14.6693 36.531 14.8441 36.8575C15.0189 37.1807 15.1063 37.5682 15.1063 38.02V43.1449H13.1078V42.0913H13.0484C12.9264 42.3287 12.7631 42.5381 12.5587 42.7195C12.3542 42.8976 12.1085 43.0378 11.8216 43.14C11.5346 43.2389 11.2032 43.2884 10.8272 43.2884ZM11.4308 41.834C11.7408 41.834 12.0145 41.773 12.2519 41.651C12.4894 41.5257 12.6757 41.3575 12.8109 41.1464C12.9462 40.9354 13.0138 40.6963 13.0138 40.4291V39.6228C12.9478 39.6657 12.8571 39.7052 12.7417 39.7415C12.6296 39.7745 12.5026 39.8058 12.3608 39.8355C12.219 39.8619 12.0772 39.8866 11.9353 39.9097C11.7935 39.9295 11.6649 39.9476 11.5495 39.9641C11.3021 40.0004 11.0861 40.0581 10.9014 40.1373C10.7168 40.2164 10.5733 40.3236 10.4711 40.4588C10.3688 40.5907 10.3177 40.7556 10.3177 40.9535C10.3177 41.2404 10.4216 41.4597 10.6294 41.6114C10.8404 41.7598 11.1076 41.834 11.4308 41.834Z" fill="#060A11" style="fill:#060A11;fill:color(display-p3 0.0235 0.0392 0.0667);fill-opacity:1;"/>
<path d="M3.9177 43.2934C3.13939 43.2934 2.46991 43.1285 1.90927 42.7987C1.35192 42.4656 0.923193 42.0039 0.623084 41.4135C0.326272 40.8232 0.177866 40.1439 0.177866 39.3754C0.177866 38.5971 0.327921 37.9145 0.628031 37.3274C0.931438 36.7371 1.36182 36.2771 1.91916 35.9473C2.47651 35.6142 3.13939 35.4476 3.9078 35.4476C4.57068 35.4476 5.15111 35.568 5.6491 35.8087C6.14708 36.0495 6.54118 36.3875 6.8314 36.8229C7.12162 37.2582 7.28156 37.7694 7.31124 38.3564H5.32261C5.26654 37.9771 5.11813 37.6721 4.87739 37.4412C4.63994 37.2071 4.32829 37.09 3.94243 37.09C3.61594 37.09 3.33067 37.179 3.08662 37.3571C2.84588 37.5319 2.65789 37.7875 2.52268 38.1239C2.38747 38.4603 2.31986 38.8676 2.31986 39.3458C2.31986 39.8306 2.38582 40.2428 2.51773 40.5825C2.65295 40.9222 2.84258 41.181 3.08662 41.3591C3.33067 41.5372 3.61594 41.6263 3.94243 41.6263C4.18318 41.6263 4.39919 41.5768 4.59047 41.4779C4.78505 41.3789 4.94499 41.2355 5.07031 41.0475C5.19893 40.8562 5.28303 40.627 5.32261 40.3599H7.31124C7.27826 40.9403 7.11997 41.4515 6.83635 41.8934C6.55602 42.332 6.16852 42.675 5.67383 42.9223C5.17915 43.1697 4.59377 43.2934 3.9177 43.2934Z" fill="#060A11" style="fill:#060A11;fill:color(display-p3 0.0235 0.0392 0.0667);fill-opacity:1;"/>
<path d="M32.5586 30.1719C31.9377 30.1719 31.0895 30.1719 30.5836 30.1719C30.0777 30.1719 0.227273 30.1719 0.227273 30.1719L0.227917 26.3429C0.227917 26.3429 31.6732 26.2817 32.1331 26.297C32.6007 26.3123 33.0032 26.205 33.3405 25.975C33.6854 25.7451 33.9652 25.3541 34.1798 24.8022L34.4673 24.0548L28.1317 5.88735H33.283L36.9394 18.8575H37.1234L40.8144 5.88735H46.0002L39.1356 25.4576C38.806 26.4081 38.3576 27.236 37.7903 27.9412C37.2307 28.6542 36.5217 29.2022 35.6631 29.5855C34.8046 29.9765 33.7697 30.1719 32.5586 30.1719Z" fill="#060A11" style="fill:#060A11;fill:color(display-p3 0.0235 0.0392 0.0667);fill-opacity:1;"/>
<path d="M0 0H6.14014L12.6252 15.8218H12.9012L19.3863 0H25.5264V23.5487H20.6971V8.22134H20.5016L14.4075 23.4337H11.1189L5.02479 8.16385H4.82932V23.5487H0V0Z" fill="#060A11" style="fill:#060A11;fill:color(display-p3 0.0235 0.0392 0.0667);fill-opacity:1;"/>
</svg>
