<svg width="140" height="30" viewBox="0 0 140 30" fill="none" xmlns="http://www.w3.org/2000/svg">
<path d="M129.895 22.0674V5.93585H133.974V22.0674H129.895ZM123.869 16.0408V11.9624H140V16.0408H123.869Z" fill="#060A11" style="fill:#060A11;fill:color(display-p3 0.0235 0.0392 0.0667);fill-opacity:1;"/>
<path d="M107.802 13.2151V23.3315H102.949V0H107.665V8.92019H107.87C108.265 7.88729 108.903 7.07843 109.784 6.49362C110.665 5.90122 111.77 5.60502 113.099 5.60502C114.314 5.60502 115.374 5.87085 116.278 6.40249C117.189 6.92653 117.895 7.68222 118.397 8.66956C118.906 9.6493 119.156 10.8227 119.149 12.1898V23.3315H114.295V13.0556C114.303 11.9771 114.03 11.1379 113.475 10.5379C112.928 9.9379 112.161 9.63791 111.174 9.63791C110.513 9.63791 109.928 9.77841 109.42 10.0594C108.918 10.3404 108.523 10.7506 108.235 11.2898C107.954 11.8214 107.809 12.4632 107.802 13.2151Z" fill="#060A11" style="fill:#060A11;fill:color(display-p3 0.0235 0.0392 0.0667);fill-opacity:1;"/>
<path d="M99.4933 10.8231L95.0503 11.0965C94.9743 10.7168 94.811 10.375 94.5604 10.0712C94.3098 9.75982 93.9794 9.51299 93.5693 9.33071C93.1667 9.14084 92.6844 9.04591 92.1224 9.04591C91.3705 9.04591 90.7364 9.2054 90.2199 9.52438C89.7035 9.83577 89.4452 10.2535 89.4452 10.7775C89.4452 11.1953 89.6123 11.5484 89.9465 11.837C90.2807 12.1256 90.8541 12.3573 91.6667 12.532L94.8338 13.1699C96.5351 13.5193 97.8034 14.0813 98.6388 14.856C99.4743 15.6307 99.892 16.6484 99.892 17.9091C99.892 19.056 99.554 20.0623 98.8781 20.9281C98.2097 21.7939 97.2907 22.4699 96.1211 22.9559C94.9591 23.4344 93.6186 23.6737 92.0996 23.6737C89.7832 23.6737 87.9376 23.1914 86.563 22.2268C85.1959 21.2547 84.3946 19.9332 84.1592 18.2623L88.9326 18.0117C89.0769 18.718 89.4262 19.2572 89.9807 19.6294C90.5351 19.9939 91.2452 20.1762 92.111 20.1762C92.9617 20.1762 93.6452 20.0129 94.1617 19.6863C94.6857 19.3522 94.9515 18.9231 94.9591 18.399C94.9515 17.9585 94.7654 17.5977 94.4009 17.3167C94.0363 17.0281 93.4743 16.8079 92.7148 16.656L89.6845 16.0522C87.9756 15.7104 86.7035 15.118 85.868 14.275C85.0402 13.4319 84.6263 12.3573 84.6263 11.051C84.6263 9.92691 84.9301 8.95856 85.5377 8.14591C86.1528 7.33326 87.0149 6.70668 88.1237 6.26618C89.2402 5.82568 90.5465 5.60542 92.0427 5.60542C94.2528 5.60542 95.992 6.07251 97.2604 7.00668C98.5363 7.94085 99.2806 9.21299 99.4933 10.8231Z" fill="#060A11" style="fill:#060A11;fill:color(display-p3 0.0235 0.0392 0.0667);fill-opacity:1;"/>
<path d="M71.3149 23.6623C70.1984 23.6623 69.2035 23.4686 68.3301 23.0812C67.4567 22.6863 66.7655 22.1053 66.2567 21.3382C65.7554 20.5635 65.5048 19.599 65.5048 18.4446C65.5048 17.4724 65.6833 16.656 66.0402 15.9952C66.3972 15.3345 66.8833 14.8028 67.4984 14.4003C68.1136 13.9978 68.8124 13.694 69.5946 13.4889C70.3845 13.2838 71.2123 13.1395 72.0782 13.056C73.0959 12.9497 73.9161 12.8509 74.5389 12.7598C75.1617 12.6611 75.6136 12.5168 75.8946 12.3269C76.1756 12.137 76.3161 11.856 76.3161 11.4839V11.4155C76.3161 10.694 76.0883 10.1358 75.6326 9.74084C75.1845 9.3459 74.5465 9.14844 73.7187 9.14844C72.8452 9.14844 72.1503 9.34211 71.6339 9.72944C71.1174 10.1092 70.7756 10.5877 70.6085 11.1649L66.12 10.8003C66.3478 9.73704 66.7959 8.81806 67.4643 8.04338C68.1326 7.26111 68.9946 6.66111 70.0503 6.24339C71.1136 5.81808 72.344 5.60542 73.7414 5.60542C74.7136 5.60542 75.644 5.71935 76.5326 5.94719C77.4288 6.17504 78.2224 6.5282 78.9136 7.00668C79.6123 7.48516 80.1629 8.10034 80.5654 8.85224C80.968 9.59653 81.1692 10.4889 81.1692 11.5294V23.3319H76.5667V20.9053H76.43C76.149 21.4521 75.7731 21.9344 75.3022 22.3521C74.8313 22.7623 74.2655 23.085 73.6047 23.3205C72.944 23.5483 72.1807 23.6623 71.3149 23.6623ZM72.7047 20.3129C73.4187 20.3129 74.049 20.1724 74.5959 19.8914C75.1427 19.6028 75.5718 19.2155 75.8832 18.7294C76.1946 18.2433 76.3503 17.6927 76.3503 17.0775V15.2205C76.1984 15.3193 75.9895 15.4104 75.7237 15.494C75.4655 15.5699 75.1731 15.6421 74.8465 15.7104C74.5199 15.7712 74.1933 15.8281 73.8668 15.8813C73.5402 15.9269 73.244 15.9686 72.9782 16.0066C72.4085 16.0902 71.9111 16.2231 71.4858 16.4053C71.0604 16.5876 70.7301 16.8345 70.4946 17.1458C70.2592 17.4496 70.1415 17.8294 70.1415 18.2851C70.1415 18.9458 70.3807 19.4509 70.8592 19.8003C71.3453 20.142 71.9604 20.3129 72.7047 20.3129Z" fill="#060A11" style="fill:#060A11;fill:color(display-p3 0.0235 0.0392 0.0667);fill-opacity:1;"/>
<path d="M55.4023 23.6737C53.6099 23.6737 52.0681 23.2939 50.777 22.5344C49.4935 21.7673 48.5061 20.7041 47.815 19.3446C47.1315 17.9851 46.7897 16.4205 46.7897 14.6509C46.7897 12.8585 47.1353 11.2864 47.8264 9.93451C48.5251 8.57502 49.5163 7.51554 50.7998 6.75605C52.0833 5.98896 53.6099 5.60542 55.3795 5.60542C56.9061 5.60542 58.2428 5.88264 59.3896 6.43706C60.5364 6.99149 61.444 7.76996 62.1124 8.77249C62.7807 9.77501 63.1491 10.9522 63.2174 12.3041H58.6377C58.5086 11.4307 58.1668 10.7282 57.6124 10.1965C57.0656 9.65729 56.3479 9.38768 55.4593 9.38768C54.7074 9.38768 54.0504 9.59274 53.4884 10.0029C52.934 10.4054 52.501 10.994 52.1897 11.7687C51.8783 12.5433 51.7226 13.4813 51.7226 14.5826C51.7226 15.699 51.8745 16.6484 52.1783 17.4307C52.4897 18.2129 52.9264 18.8091 53.4884 19.2193C54.0504 19.6294 54.7074 19.8344 55.4593 19.8344C56.0137 19.8344 56.5111 19.7205 56.9517 19.4927C57.3997 19.2648 57.7681 18.9344 58.0567 18.5015C58.3529 18.061 58.5466 17.5332 58.6377 16.918H63.2174C63.1415 18.2547 62.7769 19.4319 62.1238 20.4496C61.4782 21.4597 60.5858 22.2496 59.4466 22.8192C58.3073 23.3888 56.9592 23.6737 55.4023 23.6737Z" fill="#060A11" style="fill:#060A11;fill:color(display-p3 0.0235 0.0392 0.0667);fill-opacity:1;"/>
<path d="M32.2587 29.8936C31.6436 29.8936 30.8032 29.8936 30.302 29.8936C29.8007 29.8936 0.225666 29.8936 0.225666 29.8936L0.226305 26.1C0.226305 26.1 31.3815 26.0392 31.8372 26.0544C32.3005 26.0696 32.6992 25.9633 33.0334 25.7354C33.3752 25.5076 33.6524 25.1203 33.8651 24.5734L34.1499 23.8329L27.8727 5.83305H32.9765L36.5992 18.6836H36.7815L40.4384 5.83305H45.5764L38.7752 25.2228C38.4486 26.1645 38.0043 26.9848 37.4422 27.6835C36.8878 28.3898 36.1853 28.9329 35.3347 29.3126C34.484 29.7 33.4587 29.8936 32.2587 29.8936Z" fill="#060A11" style="fill:#060A11;fill:color(display-p3 0.0235 0.0392 0.0667);fill-opacity:1;"/>
<path d="M0 0H6.0835L12.5088 15.6758H12.7822L19.2075 0H25.291V23.3315H20.5062V8.14551H20.3125L14.2746 23.2176H11.0164L4.97845 8.08855H4.78478V23.3315H0V0Z" fill="#060A11" style="fill:#060A11;fill:color(display-p3 0.0235 0.0392 0.0667);fill-opacity:1;"/>
</svg>
